<?xml version="1.0" encoding="UTF-8"?>
<svg width="500px" height="500px" viewBox="0 0 500 500" version="1.1" xmlns="http://www.w3.org/2000/svg" xmlns:xlink="http://www.w3.org/1999/xlink">
    <!-- Generator: Sketch 63.1 (92452) - https://sketch.com -->
    <title>Chat</title>
    <desc>Created with Sketch.</desc>
    <g id="Chat" stroke="none" stroke-width="1" fill="none" fill-rule="evenodd">
        <rect id="Rectangle" stroke="#979797" fill="#D8D8D8" opacity="0" x="0.5" y="0.5" width="29" height="499"></rect>
        <rect id="Rectangle-Copy" stroke="#979797" fill="#D8D8D8" opacity="0" x="470.5" y="0.5" width="29" height="499"></rect>
        <rect id="Rectangle" stroke="#979797" fill="#D8D8D8" opacity="0" x="15.5" y="0.5" width="484" height="29"></rect>
        <rect id="Rectangle-Copy-2" stroke="#979797" fill="#D8D8D8" opacity="0" x="0.5" y="470.5" width="484" height="29"></rect>
        <g id="Group" transform="translate(31.000000, 88.000000)">
            <polygon id="Path" fill="#FFDD6A" fill-rule="nonzero" opacity="0.48" style="mix-blend-mode: multiply;" points="160.145269 47.6065748 436.707211 47.1262441 437.167802 312.153668"></polygon>
            <rect id="Rectangle" fill="#6DC7F7" fill-rule="nonzero" opacity="0.11" style="mix-blend-mode: multiply;" x="0.0240544524" y="0.0604108651" width="270.251843" height="229.111186"></rect>
            <path d="M134.039622,179.881766 L134.039622,179.881766 C142.804014,179.881766 149.906987,172.775503 149.906987,164.017692 L149.906987,152.078512 L149.906987,152.078512 C164.514305,152.078512 176.354787,140.23474 176.354787,125.630712 L176.354787,93.3531434 C176.354787,75.9724083 162.263989,61.8881896 144.883253,61.8881896 L144.883253,61.8881896 C128.354612,61.8881896 115.115907,75.5874857 115.685066,92.1062574 L118.182128,164.563821 C118.478222,173.111077 125.492367,179.881766 134.039622,179.881766 Z" id="Path" fill="#7C5600" fill-rule="nonzero" opacity="0.8" style="mix-blend-mode: multiply;"></path>
            <path d="M121.271378,102.976208 L121.271378,125.680061 C121.271378,125.680061 109.917807,124.65031 110.26325,114.329779 C110.605404,104.009248 121.271378,102.976208 121.271378,102.976208 Z" id="Path" fill="#7C5600" fill-rule="nonzero" opacity="0.8" style="mix-blend-mode: multiply;"></path>
            <circle id="Oval" fill="#003147" fill-rule="nonzero" cx="144.481881" cy="104.032278" r="3.91502457"></circle>
            <circle id="Oval" fill="#003147" fill-rule="nonzero" cx="172.439763" cy="104.032278" r="3.91502457"></circle>
            <polygon id="Path" fill="#7C5600" fill-rule="nonzero" points="158.207497 104.032278 168.521448 121.742006 158.207497 121.742006"></polygon>
            <path d="M104.417033,79.6670071 C107.101621,86.5331048 114.43489,90.4185199 121.741839,89.4019295 C139.648964,86.9246073 180.480368,78.9267714 165.145973,58.8515781 C148.410066,36.9438902 95.7447602,57.5191538 104.417033,79.6670071 Z" id="Path" fill="#FE635A" fill-rule="nonzero" style="mix-blend-mode: multiply;"></path>
            <path d="M138.375759,81.6376791 C138.375759,81.6376791 173.472803,98.5018942 189.251339,85.4441358 C205.029875,72.3863774 165.142683,58.8515781 165.142683,58.8515781 L138.375759,81.6376791 Z" id="Path" fill="#FE635A" fill-rule="nonzero" style="mix-blend-mode: multiply;"></path>
            <path d="M166.636314,131.749994 L149.778679,131.749994 C149.778679,131.749994 150.439956,140.619663 158.207497,139.849818 C165.975037,139.079972 166.636314,131.749994 166.636314,131.749994 Z" id="Path" fill="#7C5600" fill-rule="nonzero"></path>
            <path d="M117.277395,164.445384 C117.277395,164.445384 134.973964,181.74716 152.815291,163.879515 C152.815291,163.879515 204.25674,168.149852 204.168026,246.63129 L55.3015694,246.63129 C55.3015694,246.63129 52.623561,168.149852 117.277395,164.445384 Z" id="Path" fill="#2B7285" fill-rule="nonzero" style="mix-blend-mode: multiply;"></path>
            <path d="M191.399667,218.123989 C191.399667,218.123989 182.108886,174.900802 154.762933,172.972899" id="Path" stroke="#FFFFFF" stroke-width="1.37080692"></path>
            <g transform="translate(238.351449, 67.678196)" fill-rule="nonzero">
                <g transform="translate(110.381832, 0.000000)">
                    <circle id="Oval" fill="#2B7285" style="mix-blend-mode: multiply;" cx="49.1197785" cy="21.3190715" r="21.2398308"></circle>
                    <path d="M36.9404332,119.082828 L36.9404332,119.082828 C29.3340997,119.082828 23.1687585,112.917487 23.1687585,105.311153 L23.1687585,94.9478529 L23.1687585,94.9478529 C10.4893428,94.9478529 0.211580839,84.6733809 0.211580839,71.9906752 L0.211580839,43.973575 C0.211580839,28.8892156 12.4435652,16.6539414 27.5279245,16.6539414 L27.5279245,16.6539414 C41.8753381,16.6539414 53.3670867,28.5503522 52.8735962,42.8878959 L50.705528,105.781614 C50.4489129,113.203711 44.3625302,119.082828 36.9404332,119.082828 Z" id="Path" fill="#7C5600" opacity="0.8" style="mix-blend-mode: multiply;"></path>
                    <path d="M48.0275196,52.3267241 L48.0275196,72.0367343 C48.0275196,72.0367343 57.8808797,71.1418716 57.5814955,62.1800842 C57.2821113,53.2281667 48.0275196,52.3267241 48.0275196,52.3267241 Z" id="Path" fill="#7C5600" style="mix-blend-mode: multiply;"></path>
                    <circle id="Oval" fill="#003147" cx="27.8799478" cy="53.2413264" r="3.39850452"></circle>
                    <circle id="Oval" fill="#003147" cx="3.61008536" cy="53.2413264" r="3.39850452"></circle>
                    <polygon id="Path" fill="#7C5600" points="15.9637973 53.2413264 7.00858988 68.6119103 15.9637973 68.6119103"></polygon>
                    <path d="M26.5508134,74.9252987 L12.4040859,74.9252987 C12.4040859,74.9252987 12.9567953,82.3737152 19.4774496,81.7223077 C25.998104,81.0774801 26.5508134,74.9252987 26.5508134,74.9252987 Z" id="Path" fill="#7C5600"></path>
                </g>
                <path d="M110.093342,107.479221 C102.612026,111.660731 89.4489899,123.086681 64.3204541,143.34611 C63.1262071,144.310062 61.3397715,143.944879 60.6159855,142.589425 L36.5928683,100.238071 L25.7722668,104.205735 L44.860479,156.805241 C48.5090187,165.635431 59.34278,168.892468 67.2550775,163.533161 L115.650045,134.420512 L119.104479,105.827673 C117.755605,103.91293 112.139683,106.331034 110.093342,107.479221 Z" id="Path" fill="#7C5600" opacity="0.8"></path>
                <path d="M31.1677628,110.002603 C31.1677628,110.002603 -1.95531899,84.1042218 0.383825938,80.7484865 C2.71968093,77.3894612 25.966373,92.815974 25.966373,92.815974 L22.5053597,81.3900241 C22.5053597,81.3900241 35.98423,91.9408508 36.974501,99.9715861 L31.1677628,110.002603 Z" id="Path" fill="#7C5600" opacity="0.8"></path>
                <polygon id="Path" fill="#00C5A3" style="mix-blend-mode: multiply;" points="173.796385 106.373803 186.864013 255.664546 101.263152 253.440549 119.107769 105.827673"></polygon>
                <path d="M120.798796,214.935131 C120.798796,214.935131 90.5938879,245.485483 87.4651582,242.715356 C84.3364284,239.948519 102.740334,218.179009 102.740334,218.179009 L90.7386451,220.340497 C90.7386451,220.340497 103.039718,207.911116 111.307329,207.851898 L120.798796,214.935131 Z" id="Path" fill="#7C5600" opacity="0.8"></path>
                <path d="M188.469502,122.909024 L187.765456,196.435818 C187.702947,202.864354 183.120065,208.365128 176.803387,209.582404 L118.545189,220.824118 L111.304039,207.855188 L168.759492,191.10941 L167.624464,106.298134 L167.624464,106.298134 C178.326628,103.741853 188.57478,111.914056 188.469502,122.909024 Z" id="Path" fill="#7C5600" opacity="0.8"></path>
            </g>
            <line x1="368.210731" y1="183.484247" x2="375.284094" y2="233.807117" id="Path" stroke="#FFFFFF" stroke-width="1.37080692"></line>
            <line x1="401.541078" y1="184.790352" x2="388.239865" y2="233.807117" id="Path" stroke="#FFFFFF" stroke-width="1.37080692"></line>
            <circle id="Oval" fill="#FE635A" fill-rule="nonzero" style="mix-blend-mode: multiply;" cx="402.643207" cy="137.385655" r="3.67814913"></circle>
        </g>
    </g>
</svg>